<svg xmlns="http://www.w3.org/2000/svg" xmlns:xlink="http://www.w3.org/1999/xlink" width="500" zoomAndPan="magnify" viewBox="0 0 375 374.999991" height="500" preserveAspectRatio="xMidYMid meet" version="1.0"><defs><clipPath id="37578b6b41"><path d="M 60 46 L 311 46 L 311 331.90625 L 60 331.90625 Z M 60 46 " clip-rule="nonzero"/></clipPath></defs><path fill="#d1a103" d="M 161.097656 235.515625 L 97.757812 200.878906 L 97.757812 181.683594 L 161.097656 147.191406 L 161.097656 169.789062 L 116.914062 191.039062 L 161.097656 213.085938 Z M 166.960938 250.738281 L 189.84375 130.535156 L 203.160156 130.535156 L 180.023438 250.738281 Z M 209.015625 235.609375 L 209.015625 213.160156 L 253.25 191.277344 L 209.015625 169.625 L 209.015625 147.347656 L 272.421875 181.84375 L 272.421875 200.878906 Z M 209.015625 235.609375 " fill-opacity="1" fill-rule="nonzero"/><g clip-path="url(#37578b6b41)"><path fill="#d1a103" d="M 185.085938 335.015625 L 60.054688 262.832031 L 60.054688 118.449219 L 185.085938 46.265625 L 310.125 118.453125 L 310.125 262.824219 Z M 72.738281 255.503906 L 185.085938 320.367188 L 297.4375 255.503906 L 297.4375 125.777344 L 185.085938 60.910156 L 72.738281 125.773438 Z M 72.738281 255.503906 " fill-opacity="1" fill-rule="nonzero"/></g></svg>