<svg xmlns="http://www.w3.org/2000/svg" xmlns:xlink="http://www.w3.org/1999/xlink" width="84" zoomAndPan="magnify" viewBox="0 0 63 62.999997" height="84" preserveAspectRatio="xMidYMid meet" version="1.0"><defs><clipPath id="e602dc0131"><path d="M 10 7.25 L 53 7.25 L 53 56 L 10 56 Z M 10 7.25 " clip-rule="nonzero"/></clipPath></defs><path fill="#d1a103" d="M 27.070312 39.726562 L 16.429688 33.878906 L 16.429688 30.636719 L 27.070312 24.816406 L 27.070312 28.628906 L 19.648438 32.21875 L 27.070312 35.941406 Z M 28.054688 42.296875 L 31.898438 22.003906 L 34.136719 22.003906 L 30.25 42.296875 Z M 35.121094 39.742188 L 35.121094 35.953125 L 42.550781 32.257812 L 35.121094 28.601562 L 35.121094 24.839844 L 45.769531 30.664062 L 45.769531 33.878906 Z M 35.121094 39.742188 " fill-opacity="1" fill-rule="nonzero"/><g clip-path="url(#e602dc0131)"><path fill="#d1a103" d="M 31.097656 56.523438 L 10.097656 44.339844 L 10.097656 19.960938 L 31.097656 7.773438 L 52.105469 19.964844 L 52.105469 44.335938 Z M 12.226562 43.101562 L 31.097656 54.050781 L 49.972656 43.101562 L 49.972656 21.199219 L 31.097656 10.246094 L 12.226562 21.199219 Z M 12.226562 43.101562 " fill-opacity="1" fill-rule="nonzero"/></g></svg>