<svg data-v-423bf9ae="" xmlns="http://www.w3.org/2000/svg" viewBox="0 0 320 90" class="iconLeft">
<!----><!----><!---->
<g data-v-423bf9ae="" id="8a44c7e7-6f3c-4daf-a4c9-6c34b9746747" fill="#D1A103" transform="matrix(3.298515916977585,0,0,3.298515916977585,98.86832102868802,8.304012067651065)">
<path d="M-0.28 14.81L-0.28 14.81L-0.28 14.81Q-0.28 14.55 0.53 12.82L0.53 12.82L0.53 12.82Q1.34 11.10 2.37 8.91L2.37 8.91L2.37 8.91Q3.40 6.72 3.77 5.73L3.77 5.73L4.02 5.04L4.02 5.04Q3.91 4.84 3.47 4.33L3.47 4.33L3.47 4.33Q3.98 4.16 4.35 4.16L4.35 4.16L4.35 4.16Q4.72 4.16 4.96 4.21L4.96 4.21L4.96 4.21Q5.21 4.27 5.40 4.40L5.40 4.40L5.40 4.40Q5.59 4.54 5.73 4.68L5.73 4.68L5.73 4.68Q5.88 4.82 6.01 5.09L6.01 5.09L6.01 5.09Q6.13 5.36 6.22 5.58L6.22 5.58L6.22 5.58Q6.30 5.80 6.41 6.19L6.41 6.19L6.41 6.19Q6.51 6.58 6.57 6.87L6.57 6.87L6.57 6.87Q6.64 7.15 6.74 7.67L6.74 7.67L6.74 7.67Q6.85 8.18 6.96 8.65L6.96 8.65L6.96 8.65Q7.07 9.13 7.35 10.46L7.35 10.46L7.35 10.46Q7.63 11.80 7.79 12.47L7.79 12.47L7.79 12.47Q7.95 13.13 8.25 13.96L8.25 13.96L8.25 13.96Q8.55 14.78 8.89 15.26L8.89 15.26L8.89 15.26Q8.08 15.65 7.57 15.65L7.57 15.65L7.57 15.65Q7.07 15.65 6.83 15.39L6.83 15.39L6.83 15.39Q6.59 15.13 6.43 14.61L6.43 14.61L6.43 14.61Q6.26 14.08 5.77 11.79L5.77 11.79L5.77 11.79Q5.45 12.07 4.72 12.10L4.72 12.10L2.32 12.18L2.32 12.18Q1.47 14.27 1.06 15.89L1.06 15.89L1.06 15.89Q-0.28 15.41-0.28 14.81ZM4.66 6.90L4.66 6.90L4.66 6.90Q4.47 7.35 3.80 8.81L3.80 8.81L3.80 8.81Q3.14 10.28 2.77 11.14L2.77 11.14L5.64 11.14L5.64 11.14Q4.98 8.12 4.66 6.90ZM16.11 8.32L16.11 8.32L16.11 8.32Q16.11 8.81 15.69 9.64L15.69 9.64L15.69 9.64Q15.27 10.47 14.67 11.48L14.67 11.48L14.67 11.48Q14.07 12.49 13.47 13.63L13.47 13.63L13.47 13.63Q12.87 14.77 12.45 16.21L12.45 16.21L12.45 16.21Q12.03 17.64 12.03 19.01L12.03 19.01L12.03 19.01Q12.03 19.64 12.12 20.22L12.12 20.22L12.12 20.22Q10.99 20.01 10.58 19.59L10.58 19.59L10.58 19.59Q10.18 19.18 10.18 18.62L10.18 18.62L10.18 18.62Q10.18 17.85 11.30 15.58L11.30 15.58L11.30 15.58Q11.09 14.71 10.78 12.86L10.78 12.86L10.78 12.86Q10.47 11.00 10.16 9.63L10.16 9.63L10.16 9.63Q9.84 8.26 9.44 7.59L9.44 7.59L9.44 7.59Q10.21 7.22 10.67 7.22L10.67 7.22L10.67 7.22Q11.13 7.22 11.37 7.43L11.37 7.43L11.37 7.43Q11.61 7.64 11.77 8.27L11.77 8.27L11.77 8.27Q11.93 8.89 12.00 9.30L12.00 9.30L12.00 9.30Q12.19 10.64 12.19 10.79L12.19 10.79L12.19 10.79Q12.19 10.95 12.31 12.05L12.31 12.05L12.31 12.05Q12.42 13.15 12.47 13.50L12.47 13.50L12.47 13.50Q14.97 8.67 14.97 7.04L14.97 7.04L14.97 7.04Q16.11 7.63 16.11 8.32ZM21.31 8.41L21.31 8.41L21.31 8.41Q20.40 8.41 19.68 9.64L19.68 9.64L19.68 9.64Q18.97 10.86 18.97 12.08L18.97 12.08L18.97 12.08Q18.97 14.63 20.29 14.63L20.29 14.63L20.29 14.63Q21.22 14.63 21.81 13.41L21.81 13.41L21.81 13.41Q22.40 12.18 22.40 10.65L22.40 10.65L22.40 10.65Q22.40 8.41 21.31 8.41ZM22.18 7.39L22.18 7.39L22.18 7.39Q23.02 7.39 23.60 8.22L23.60 8.22L23.60 8.22Q24.19 9.04 24.19 10.43L24.19 10.43L24.19 10.43Q24.19 11.98 23.56 13.29L23.56 13.29L23.56 13.29Q22.86 14.76 21.57 15.32L21.57 15.32L21.57 15.32Q20.85 15.64 19.98 15.64L19.98 15.64L19.98 15.64Q18.76 15.64 17.86 14.69L17.86 14.69L17.86 14.69Q16.95 13.75 16.95 11.98L16.95 11.98L16.95 11.98Q16.95 10.21 17.82 8.86L17.82 8.86L17.82 8.86Q18.69 7.50 20.12 7.15L20.12 7.15L20.12 7.15Q20.27 7.15 20.40 7.25L20.40 7.25L20.40 7.25Q20.54 7.34 20.54 7.43L20.54 7.43L20.54 7.43Q19.12 8.41 18.84 10.16L18.84 10.16L18.84 10.16Q19.14 9.38 19.56 8.81L19.56 8.81L19.56 8.81Q19.99 8.23 20.45 7.94L20.45 7.94L20.45 7.94Q21.34 7.39 22.18 7.39ZM29.41 15.64L29.41 15.64L29.41 15.64Q27.76 15.64 26.64 14.38L26.64 14.38L26.64 14.38Q25.52 13.12 25.52 10.71L25.52 10.71L25.52 10.71Q25.52 8.02 26.91 6.13L26.91 6.13L26.91 6.13Q27.59 5.22 28.66 4.68L28.66 4.68L28.66 4.68Q29.74 4.14 31.14 4.14L31.14 4.14L31.14 4.14Q32.55 4.14 33.28 4.89L33.28 4.89L33.28 4.89Q34.02 5.64 34.02 6.66L34.02 6.66L34.02 6.66Q34.02 7.67 33.46 8.31L33.46 8.31L33.46 8.31Q32.90 8.95 32.00 8.95L32.00 8.95L32.00 8.95Q31.70 8.95 31.29 8.83L31.29 8.83L31.29 8.83Q31.58 8.47 31.81 7.80L31.81 7.80L31.81 7.80Q32.03 7.13 32.03 6.52L32.03 6.52L32.03 6.52Q32.03 5.92 31.75 5.54L31.75 5.54L31.75 5.54Q31.47 5.17 30.87 5.17L30.87 5.17L30.87 5.17Q29.95 5.17 29.20 6.02L29.20 6.02L29.20 6.02Q28.46 6.87 28.10 8.12L28.10 8.12L28.10 8.12Q27.73 9.37 27.73 10.70L27.73 10.70L27.73 10.70Q27.73 12.49 28.43 13.41L28.43 13.41L28.43 13.41Q29.13 14.34 30.23 14.34L30.23 14.34L30.23 14.34Q30.91 14.34 31.65 13.87L31.65 13.87L31.65 13.87Q32.40 13.41 33.07 12.56L33.07 12.56L33.07 12.56Q33.59 12.67 33.59 13.08L33.59 13.08L33.59 13.08Q33.05 14.04 32.28 14.64L32.28 14.64L32.28 14.64Q31.51 15.25 30.83 15.44L30.83 15.44L30.83 15.44Q30.14 15.64 29.41 15.64ZM39.56 8.41L39.56 8.41L39.56 8.41Q38.65 8.41 37.94 9.64L37.94 9.64L37.94 9.64Q37.23 10.86 37.23 12.08L37.23 12.08L37.23 12.08Q37.23 14.63 38.54 14.63L38.54 14.63L38.54 14.63Q39.48 14.63 40.07 13.41L40.07 13.41L40.07 13.41Q40.66 12.18 40.66 10.65L40.66 10.65L40.66 10.65Q40.66 8.41 39.56 8.41ZM40.43 7.39L40.43 7.39L40.43 7.39Q41.27 7.39 41.86 8.22L41.86 8.22L41.86 8.22Q42.45 9.04 42.45 10.43L42.45 10.43L42.45 10.43Q42.45 11.98 41.82 13.29L41.82 13.29L41.82 13.29Q41.12 14.76 39.83 15.32L39.83 15.32L39.83 15.32Q39.10 15.64 38.23 15.64L38.23 15.64L38.23 15.64Q37.02 15.64 36.11 14.69L36.11 14.69L36.11 14.69Q35.21 13.75 35.21 11.98L35.21 11.98L35.21 11.98Q35.21 10.21 36.08 8.86L36.08 8.86L36.08 8.86Q36.95 7.50 38.37 7.15L38.37 7.15L38.37 7.15Q38.53 7.15 38.66 7.25L38.66 7.25L38.66 7.25Q38.79 7.34 38.79 7.43L38.79 7.43L38.79 7.43Q37.38 8.41 37.10 10.16L37.10 10.16L37.10 10.16Q37.39 9.38 37.82 8.81L37.82 8.81L37.82 8.81Q38.25 8.23 38.71 7.94L38.71 7.94L38.71 7.94Q39.59 7.39 40.43 7.39ZM45.72 12.60L45.72 12.60L45.72 12.60Q45.72 14.27 46.73 14.27L46.73 14.27L46.73 14.27Q47.26 14.27 47.77 13.69L47.77 13.69L47.77 13.69Q48.27 13.12 48.59 12.15L48.59 12.15L48.59 12.15Q48.90 11.19 49.13 10.09L49.13 10.09L49.13 10.09Q49.36 8.99 49.48 7.76L49.48 7.76L49.48 7.76Q49.67 5.38 49.67 4.04L49.67 4.04L49.67 4.04Q49.67 2.70 49.56 2.03L49.56 2.03L49.56 2.03Q50.57 2.25 50.97 2.98L50.97 2.98L50.97 2.98Q51.38 3.71 51.38 4.82L51.38 4.82L51.38 4.82Q51.38 5.92 50.91 8.93L50.91 8.93L50.91 8.93Q50.44 11.94 50.44 13.33L50.44 13.33L50.44 13.33Q50.44 14.71 50.57 15.68L50.57 15.68L50.57 15.68Q49.57 15.41 49.20 14.72L49.20 14.72L49.20 14.72Q48.83 14.03 48.83 12.98L48.83 12.98L48.83 12.98Q48.40 14.18 47.53 14.88L47.53 14.88L47.53 14.88Q46.66 15.58 45.74 15.58L45.74 15.58L45.74 15.58Q44.81 15.58 44.23 14.88L44.23 14.88L44.23 14.88Q43.65 14.17 43.65 12.80L43.65 12.80L43.65 12.80Q43.65 10.63 44.84 9.07L44.84 9.07L44.84 9.07Q46.03 7.50 47.66 7.50L47.66 7.50L47.66 7.50Q48.12 7.50 49.11 7.73L49.11 7.73L49.11 7.73Q48.24 7.95 47.56 8.51L47.56 8.51L47.56 8.51Q46.89 9.06 46.51 9.77L46.51 9.77L46.51 9.77Q45.72 11.19 45.72 12.60ZM55.85 11.98L55.85 11.98L55.85 11.98Q55.17 11.98 54.53 11.83L54.53 11.83L54.53 11.83Q54.52 11.97 54.52 12.26L54.52 12.26L54.52 12.26Q54.52 13.43 54.95 14.01L54.95 14.01L54.95 14.01Q55.38 14.60 55.99 14.60L55.99 14.60L55.99 14.60Q56.59 14.60 57.13 14.24L57.13 14.24L57.13 14.24Q57.68 13.87 58.09 13.23L58.09 13.23L58.09 13.23Q58.59 13.34 58.59 13.75L58.59 13.75L58.59 13.75Q57.36 15.64 55.41 15.64L55.41 15.64L55.41 15.64Q54.24 15.64 53.35 14.74L53.35 14.74L53.35 14.74Q52.47 13.83 52.47 12.22L52.47 12.22L52.47 12.22Q52.47 11.02 52.93 9.93L52.93 9.93L52.93 9.93Q53.40 8.85 54.40 8.10L54.40 8.10L54.40 8.10Q55.41 7.35 56.64 7.35L56.64 7.35L56.64 7.35Q57.86 7.35 58.44 7.91L58.44 7.91L58.44 7.91Q59.01 8.47 59.01 9.38L59.01 9.38L59.01 9.38Q59.01 10.70 58.09 11.34L58.09 11.34L58.09 11.34Q57.18 11.98 55.85 11.98ZM56.43 8.22L56.43 8.22L56.43 8.22Q55.72 8.22 55.23 9.10L55.23 9.10L55.23 9.10Q54.74 9.98 54.59 11.24L54.59 11.24L54.80 11.24L54.80 11.24Q56.01 11.24 56.59 10.61L56.59 10.61L56.59 10.61Q57.18 9.98 57.18 9.10L57.18 9.10L57.18 9.10Q57.18 8.74 56.99 8.48L56.99 8.48L56.99 8.48Q56.80 8.22 56.43 8.22ZM65.93 15.85L65.93 15.85L65.93 15.85Q64.95 15.85 64.24 15.00L64.24 15.00L64.24 15.00Q63.53 14.15 62.92 12.63L62.92 12.63L62.92 12.63Q61.68 14.14 61.12 16.02L61.12 16.02L61.12 16.02Q60.07 15.15 60.07 14.48L60.07 14.48L60.07 14.48Q60.07 13.99 60.68 13.27L60.68 13.27L60.68 13.27Q61.29 12.54 62.47 11.45L62.47 11.45L62.47 11.45Q61.57 9.03 61.24 8.45L61.24 8.45L61.24 8.45Q60.91 7.87 60.70 7.59L60.70 7.59L60.70 7.59Q61.40 7.22 61.98 7.22L61.98 7.22L61.98 7.22Q62.44 7.22 62.73 7.62L62.73 7.62L62.73 7.62Q63.08 8.05 63.27 8.55L63.27 8.55L63.27 8.55Q63.45 9.04 63.54 9.33L63.54 9.33L63.54 9.33Q63.63 9.62 63.81 10.18L63.81 10.18L63.81 10.18Q65.81 8.22 66.02 7.10L66.02 7.10L66.02 7.10Q66.85 7.80 66.85 8.32L66.85 8.32L66.85 8.32Q66.85 8.68 66.60 9.06L66.60 9.06L66.60 9.06Q66.35 9.44 66.07 9.70L66.07 9.70L66.07 9.70Q65.79 9.95 65.15 10.48L65.15 10.48L65.15 10.48Q64.51 11.00 64.18 11.31L64.18 11.31L64.18 11.31Q64.67 12.67 65.49 13.96L65.49 13.96L65.49 13.96Q66.32 15.25 66.82 15.72L66.82 15.72L66.82 15.72Q66.32 15.85 65.93 15.85Z"></path>
</g><!---->
<g data-v-423bf9ae="" id="17a08616-4623-4f9a-a678-67ae9ef4826b" transform="matrix(1.0967317867280029,0,0,1.0967317867280029,-9.887934433871983,-3.3839284713020135)" stroke="none" fill="#D1A103">
<path d="M38.182 57.753L20.18 47.91v-5.455l18.002-9.803v6.422l-12.557 6.039 12.557 6.266zM39.848 62.08l6.503-34.162h3.785L43.56 62.08zM51.8 57.78V51.4l12.572-6.219L51.8 39.028v-6.332L69.82 42.5v5.41z">
</path>
<path d="M44.999 86.031L9.465 65.517V24.484L44.999 3.969l35.536 20.516v41.029L44.999 86.031zM13.07 63.434l31.929 18.434L76.93 63.434V26.566L44.999 8.131 13.07 26.565v36.869z">
</path>
</g>
<!---->
</svg>